<svg width="127" height="53" viewBox="0 0 127 53" fill="none" xmlns="http://www.w3.org/2000/svg">
<path d="M83.4949 47.3927C89.8691 43.6334 95.0198 38.3599 97.9985 32.5438C101.081 26.5247 101.494 20.6367 99.1611 15.9641C96.9539 11.5427 92.5074 8.73973 86.6404 8.07113C81.6553 7.50323 76.0142 8.52663 70.5412 10.9622C68.6601 5.29143 64.8027 1.53523 59.6485 0.372431C54.4036 -0.811069 48.5176 0.84753 43.0747 5.04233C37.8154 9.09573 33.5754 15.0729 31.1358 21.8729C28.6963 28.6729 28.3337 35.525 30.1146 41.167C30.4425 42.2058 30.8353 43.1816 31.2896 44.0915C33.3886 48.2963 36.7944 51.0836 41.106 52.0565C45.4374 53.0338 50.2058 52.0712 54.8008 49.3443C61.5451 54.2582 73.0741 53.5388 83.4949 47.3927ZM85.6236 12.0946C89.8859 12.5803 93.1717 14.4259 94.9891 17.3256C90.952 24.4189 83.0442 28.8672 75.3867 28.2331C73.712 28.0945 72.0178 28.1509 70.322 28.3979C71.7128 23.6703 72.0955 18.9826 71.4472 14.7586C76.2975 12.5424 81.2748 11.5991 85.6236 12.0946ZM34.0248 39.4818C32.4938 34.6319 32.826 28.6848 34.9604 22.7359C37.0944 16.7871 40.7595 11.5919 45.2806 8.10773C49.274 5.02993 53.4887 3.64953 57.2639 4.15643C59.109 11.324 55.9245 19.6293 49.288 24.6714C42.1396 30.1027 38.2639 38.6281 38.9782 46.574C36.7302 45.0583 35.0208 42.6362 34.0248 39.4818ZM43.4909 48.2729C41.6457 41.1053 44.8302 32.7999 51.4666 27.7577C58.6152 22.3264 62.491 13.801 61.7766 5.85503C64.0247 7.37053 65.734 9.79273 66.7301 12.9476C68.2611 17.7974 67.9289 23.7445 65.7947 29.6933C63.6604 35.6421 59.9953 40.8371 55.4743 44.3217C51.4808 47.3992 47.2661 48.7796 43.4909 48.2729ZM58.5869 46.6595C62.8789 43.0897 66.4272 38.2223 68.778 32.6991C70.686 32.2578 72.602 32.1121 74.4887 32.2684C82.7367 32.9513 91.2241 28.8172 96.5081 21.8976C96.7824 24.714 96.0774 27.8805 94.4117 31.1328C91.8515 36.1323 87.3705 40.697 81.7941 43.9858C77.0553 46.7807 72.0715 48.3485 67.3815 48.5198C63.9838 48.6437 60.9464 47.991 58.5869 46.6595Z" fill="#B1A29F"/>
<path d="M20.057 38.7169C19.809 38.9235 19.344 39.2025 18.662 39.5539C18.0007 39.9052 17.1843 40.2152 16.213 40.4839C15.2417 40.7525 14.167 40.8765 12.989 40.8559C11.191 40.8145 9.579 40.4942 8.153 39.8949C6.74767 39.2749 5.549 38.4379 4.557 37.3839C3.58567 36.3299 2.84167 35.1209 2.325 33.7569C1.80833 32.3929 1.55 30.9359 1.55 29.3859C1.55 27.6499 1.80833 26.0585 2.325 24.6119C2.86233 23.1652 3.61667 21.9149 4.588 20.8609C5.58 19.8069 6.758 18.9905 8.122 18.4119C9.486 17.8332 10.9947 17.5439 12.648 17.5439C14.1773 17.5439 15.531 17.7505 16.709 18.1639C17.887 18.5772 18.848 19.0215 19.592 19.4969L17.825 23.7439C17.3083 23.3512 16.616 22.9482 15.748 22.5349C14.9007 22.1009 13.919 21.8839 12.803 21.8839C11.935 21.8839 11.098 22.0699 10.292 22.4419C9.50667 22.7932 8.804 23.2995 8.184 23.9609C7.58467 24.6222 7.10933 25.3972 6.758 26.2859C6.40667 27.1539 6.231 28.1045 6.231 29.1379C6.231 30.2332 6.386 31.2355 6.696 32.1449C7.02667 33.0542 7.49167 33.8395 8.091 34.5009C8.69033 35.1415 9.40333 35.6375 10.23 35.9889C11.0773 36.3402 12.028 36.5159 13.082 36.5159C14.3013 36.5159 15.345 36.3195 16.213 35.9269C17.081 35.5342 17.7423 35.1209 18.197 34.6869L20.057 38.7169ZM23.1652 29.2309C23.1652 27.6602 23.4649 26.1722 24.0642 24.7669C24.6636 23.3615 25.4902 22.1215 26.5442 21.0469C27.6189 19.9515 28.8589 19.0939 30.2642 18.4739C31.6696 17.8539 33.1782 17.5439 34.7902 17.5439C36.3816 17.5439 37.8799 17.8539 39.2852 18.4739C40.6906 19.0939 41.9306 19.9515 43.0052 21.0469C44.1006 22.1215 44.9479 23.3615 45.5472 24.7669C46.1672 26.1722 46.4772 27.6602 46.4772 29.2309C46.4772 30.8429 46.1672 32.3515 45.5472 33.7569C44.9479 35.1622 44.1006 36.4022 43.0052 37.4769C41.9306 38.5309 40.6906 39.3575 39.2852 39.9569C37.8799 40.5562 36.3816 40.8559 34.7902 40.8559C33.1782 40.8559 31.6696 40.5562 30.2642 39.9569C28.8589 39.3575 27.6189 38.5309 26.5442 37.4769C25.4902 36.4022 24.6636 35.1622 24.0642 33.7569C23.4649 32.3515 23.1652 30.8429 23.1652 29.2309ZM27.8152 29.2309C27.8152 30.2435 27.9909 31.1942 28.3422 32.0829C28.7142 32.9509 29.2206 33.7259 29.8612 34.4079C30.5226 35.0692 31.2769 35.5859 32.1242 35.9579C32.9922 36.3299 33.9326 36.5159 34.9452 36.5159C35.9166 36.5159 36.8156 36.3299 37.6422 35.9579C38.4896 35.5859 39.2232 35.0692 39.8432 34.4079C40.4632 33.7259 40.9489 32.9509 41.3002 32.0829C41.6516 31.1942 41.8272 30.2435 41.8272 29.2309C41.8272 28.1975 41.6412 27.2365 41.2692 26.3479C40.9179 25.4592 40.4219 24.6842 39.7812 24.0229C39.1612 23.3409 38.4276 22.8139 37.5802 22.4419C36.7329 22.0699 35.8132 21.8839 34.8212 21.8839C33.8292 21.8839 32.9096 22.0699 32.0622 22.4419C31.2149 22.8139 30.4709 23.3409 29.8302 24.0229C29.1896 24.6842 28.6936 25.4592 28.3422 26.3479C27.9909 27.2365 27.8152 28.1975 27.8152 29.2309ZM50.9587 17.7919H65.2187V22.1319H55.4537V27.3089H63.9167V31.6489H55.4537V40.6079H50.9587V17.7919ZM69.5466 17.7919H83.8066V22.1319H74.0416V27.3089H82.5046V31.6489H74.0416V40.6079H69.5466V17.7919ZM88.1345 17.7919H103.696V22.1319H92.6295V26.9989H102.425V31.3389H92.6295V36.2679H104.13V40.6079H88.1345V17.7919ZM108.781 17.7919H124.343V22.1319H113.276V26.9989H123.072V31.3389H113.276V36.2679H124.777V40.6079H108.781V17.7919Z" fill="#643E31" fill-opacity="0.63"/>
</svg>
