<svg width="952" height="922" viewBox="0 0 952 922" fill="none" xmlns="http://www.w3.org/2000/svg">
<path d="M787.974 115H104.026C46.5652 115 0 169.645 0 237.057V734.941C0 802.355 46.5652 857 104.026 857H787.974C845.419 857 892 802.355 892 734.941V237.057C892 169.645 845.421 115 787.974 115ZM842.33 767.828L822.529 795.347L545.23 529.766L502.285 577.717C470.459 612.015 421.543 612.015 389.715 577.717L346.77 529.766L69.4715 795.347L49.6698 767.828L310.022 488.723L47.9642 199.709L63.4574 175.619L446 515.768L828.541 175.619L844.022 199.709L581.979 488.723L842.33 767.828Z" fill="url(#paint0_linear_16_11)"/>
<defs>
<linearGradient id="paint0_linear_16_11" x1="446" y1="115" x2="446" y2="857" gradientUnits="userSpaceOnUse">
<stop offset="0.261" stop-color="#6F401E"/>
<stop offset="1" stop-color="#D4BFBC" stop-opacity="0"/>
</linearGradient>
</defs>
</svg>
