<svg width="800" height="800" viewBox="0 0 800 800" fill="none" xmlns="http://www.w3.org/2000/svg">
<path d="M283.564 19.802H516.832C729.901 19.802 780.198 70.4951 780.198 283.564V516.832C780.198 729.901 729.505 780.198 516.436 780.198H283.168C70.099 780.198 19.802 729.505 19.802 516.436V283.168C19.802 70.4951 70.495 19.802 283.564 19.802Z" fill="url(#paint0_linear_16_3)"/>
<mask id="mask0_16_3" style="mask-type:luminance" maskUnits="userSpaceOnUse" x="19" y="19" width="762" height="762">
<path d="M283.564 19.802H516.832C729.901 19.802 780.198 70.4951 780.198 283.564V516.832C780.198 729.901 729.505 780.198 516.436 780.198H283.168C70.099 780.198 19.802 729.505 19.802 516.436V283.168C19.802 70.4951 70.495 19.802 283.564 19.802Z" fill="white"/>
</mask>
<g mask="url(#mask0_16_3)">
<path d="M0 0H800V800H0V0Z" fill="url(#paint1_linear_16_3)"/>
</g>
<path fill-rule="evenodd" clip-rule="evenodd" d="M642.05 270.198C645.614 258.317 642.05 250 625.416 250H569.97C555.713 250 549.376 257.525 545.812 265.842C545.812 265.842 517.693 334.752 477.693 379.109C464.624 392.178 459.079 396.139 451.95 396.139C448.386 396.139 443.238 392.178 443.238 380.297V270.198C443.238 255.941 439.277 250 427.396 250H340.267C331.554 250 326.01 256.733 326.01 262.673C326.01 276.139 345.812 279.307 348.188 316.535V398.119C348.188 415.941 345.02 419.109 337.891 419.109C319.277 419.109 273.337 350.198 246.406 270.99C240.861 256.337 235.713 250 221.455 250H166.01C150.168 250 147 257.525 147 265.842C147 280.495 165.614 353.366 234.525 449.604C280.465 515.347 345.02 550.99 403.634 550.99C438.881 550.99 443.238 543.069 443.238 529.604V479.703C443.238 463.861 446.406 460.693 457.891 460.693C466.208 460.693 480.069 464.653 512.941 496.337C550.564 533.96 556.901 550.99 577.891 550.99H633.337C649.178 550.99 657.099 543.069 652.347 527.624C647.198 512.178 629.376 489.604 605.614 462.673C592.545 447.228 573.139 430.99 567.594 422.673C559.277 411.98 561.653 407.228 567.594 398.119C567.594 397.723 635.317 302.673 642.05 270.198Z" fill="white"/>
<defs>
<linearGradient id="paint0_linear_16_3" x1="400" y1="19.802" x2="400" y2="780.198" gradientUnits="userSpaceOnUse">
<stop offset="0.171" stop-color="#6F401E"/>
<stop offset="1" stop-color="#D4BFBC" stop-opacity="0"/>
</linearGradient>
<linearGradient id="paint1_linear_16_3" x1="400" y1="0" x2="400" y2="800" gradientUnits="userSpaceOnUse">
<stop offset="0.171" stop-color="#6F401E"/>
<stop offset="1" stop-color="#D4BFBC" stop-opacity="0"/>
</linearGradient>
</defs>
</svg>
